<?xml version="1.0" encoding="UTF-8" standalone="no"?>
<!-- Created with Inkscape (http://www.inkscape.org/) -->

<svg
   xmlns:dc="http://purl.org/dc/elements/1.1/"
   xmlns:cc="http://creativecommons.org/ns#"
   xmlns:rdf="http://www.w3.org/1999/02/22-rdf-syntax-ns#"
   xmlns:svg="http://www.w3.org/2000/svg"
   xmlns="http://www.w3.org/2000/svg"
   xmlns:sodipodi="http://sodipodi.sourceforge.net/DTD/sodipodi-0.dtd"
   xmlns:inkscape="http://www.inkscape.org/namespaces/inkscape"
   width="132.29167mm"
   height="109.16425mm"
   viewBox="0 0 132.29167 109.16425"
   version="1.1"
   id="svg7333"
   inkscape:version="0.92.1 r15371"
   sodipodi:docname="colombia.svg">
  <defs
     id="defs7327" />
  <sodipodi:namedview
     id="base"
     pagecolor="#ffffff"
     bordercolor="#666666"
     borderopacity="1.0"
     inkscape:pageopacity="0.0"
     inkscape:pageshadow="2"
     inkscape:zoom="0.98994949"
     inkscape:cx="116.37033"
     inkscape:cy="268.04192"
     inkscape:document-units="mm"
     inkscape:current-layer="layer1"
     showgrid="false"
     fit-margin-top="0"
     fit-margin-left="0"
     fit-margin-right="0"
     fit-margin-bottom="0"
     inkscape:window-width="1366"
     inkscape:window-height="719"
     inkscape:window-x="0"
     inkscape:window-y="0"
     inkscape:window-maximized="1" />
  <metadata
     id="metadata7330">
    <rdf:RDF>
      <cc:Work
         rdf:about="">
        <dc:format>image/svg+xml</dc:format>
        <dc:type
           rdf:resource="http://purl.org/dc/dcmitype/StillImage" />
        <dc:title></dc:title>
      </cc:Work>
    </rdf:RDF>
  </metadata>
  <g
     inkscape:label="Layer 1"
     inkscape:groupmode="layer"
     id="layer1"
     transform="translate(121.68276,-11.972194)">
    <path
       class="fil11 str8"
       d="m 0.41124456,79.064585 c -0.11574,1.658942 0.1929,3.317884 1.23456104,5.092566 1.118822,1.929002 2.816343,3.240723 2.932083,6.172806 0.115741,2.546283 -0.3858,5.941327 -0.50154,8.564769 -0.501541,9.413534 1.234561,13.232954 1.157401,16.126454 -2.662023,1.58179 -1.658942,1.46605 -1.427461,5.20831 0,0.42438 -0.617281,0.42438 -1.157402,0.42438 -2.12190204,0 -4.745345,0 -6.751507,0 -0.46296,0 -1.350301,0 -1.427461,-0.5787 0.42438,-2.58486 3.433623,-4.20523 3.780844,-8.14039 0.30864,-3.6651 0.27006,-7.67743 -0.231481,-11.22679 -0.7716,-5.401207 -2.932083,-8.757671 -6.095646,-12.615675 -0.810181,-1.003081 -1.890422,-2.932083 -2.7006026,-3.587944 -0.07716,2.314802 -0.1929,4.745345 -0.23148,7.060148 -0.03858,5.555526 0.5787,4.398124 -3.317884,10.648091 -1.041661,1.62036 -1.736102,3.04782 -2.662023,4.74535 -4.938245,9.02772 -1.157401,7.44594 -3.703684,9.91507 -1.851842,1.77468 0.694441,3.20214 -2.083322,3.78084 h -6.095646 c -0.578701,0 -1.388882,-0.11574 -1.427462,-0.42438 0.03858,-1.3503 1.195981,-2.5077 2.276223,-3.97375 3.163563,-4.16664 4.436704,-7.29162 6.442866,-12.73141 1.697522,-4.513863 2.816344,-4.938244 1.736102,-10.68667 -0.73302,-3.935164 -1.427461,-7.368788 -1.929002,-11.535432 -2.777763,-0.501541 -10.648091,0.15432 -14.158875,0.11574 -4.861086,-0.07716 -9.837911,-0.385801 -14.660416,-0.347221 -0.771601,1.350302 -1.851842,7.368788 -2.083322,9.25921 -0.23148,1.851842 0.30864,3.665104 0.1929,5.439786 -0.15432,2.044742 -0.578701,2.700603 -0.42438,5.208307 0.23148,4.12806 2.430542,13.88881 2.083322,15.04621 -0.270061,0.96451 -0.733021,0.81019 -1.118821,1.77469 -0.424381,1.11882 -0.03858,2.3148 -1.581782,2.85492 h -5.709861 c -0.11574,0 -0.270061,-0.0772 -0.308641,-0.15432 0.733021,-6.28855 5.362641,-0.42434 1.890422,-20.02304 -0.27006,-1.620364 -0.34722,-1.658944 -1.041661,-2.932085 -0.61728,-1.157401 -0.54012,-2.044742 -0.964501,-3.317884 -0.15432,4.205225 -1.504621,6.635769 -1.543201,11.458309 -0.03858,3.85801 0.54012,6.44287 0.23148,9.91503 -2.044742,1.58182 -1.851842,1.27318 -1.813266,4.62965 -0.03858,0.0772 -0.771597,0.30864 -1.697518,0.42438 h -2.546286 c -1.774682,0 -3.472204,-0.1929 -3.510784,-0.50154 0.11574,-1.58178 0.655861,-3.70369 1.466041,-4.82251 6.905832,-9.56789 2.044743,-13.81169 2.970664,-21.334799 0.34722,-2.932083 -2.777763,-11.265372 -4.012325,-14.467515 -0.03858,-0.192901 -0.11574,-0.308641 -0.1929,-0.462961 z"
       id="path117"
       inkscape:connector-curvature="0"
       style="clip-rule:evenodd;fill:#373435;fill-rule:evenodd;stroke:#373435;stroke-width:0.96450114;image-rendering:optimizeQuality;shape-rendering:geometricPrecision;text-rendering:geometricPrecision" />
    <path
       class="fil16"
       d="m -50.63015,21.040199 c 2.893503,-0.03858 4.166644,-0.11574 7.600268,-0.27006 6.365707,-0.23148 11.303953,-0.501541 17.631079,-0.3858 l 0.848761,3.549363 c -1.504621,0.424381 -3.780844,1.118822 -6.558607,1.967582 -3.896584,0.07716 -7.908909,0.192901 -11.728333,0.347221 -3.356463,0.11574 -6.211386,0.23148 -9.29779,0.30864 z m 0.925921,1.967582 c 0.42438,0 0.733021,0.347221 0.733021,0.733021 0,0.424381 -0.308641,0.771601 -0.733021,0.771601 -0.424381,0 -0.771601,-0.34722 -0.771601,-0.771601 0,-0.3858 0.34722,-0.733021 0.771601,-0.733021 z m 6.095646,-1.466041 2.276223,2.237642 -2.276223,2.276223 -0.61728,-0.655861 1.581782,-1.620362 -1.581782,-1.581782 z m -2.353382,0 2.237642,2.237642 -2.237642,2.276223 -0.655861,-0.655861 1.620362,-1.620362 -1.620362,-1.581782 z m -2.160482,0 2.276222,2.237642 -2.276222,2.276223 -0.655861,-0.655861 1.620362,-1.620362 -1.620362,-1.581782 z"
       id="path119"
       inkscape:connector-curvature="0"
       style="clip-rule:evenodd;fill:#473931;fill-rule:nonzero;stroke-width:0.03858004;image-rendering:optimizeQuality;shape-rendering:geometricPrecision;text-rendering:geometricPrecision" />
    <path
       class="fil16"
       d="m -30.298468,35.662035 c -0.655861,0.03858 -1.543201,-0.848761 -3.935164,-0.15432 -0.23148,-0.887341 0.34722,-1.774682 1.195981,-1.967582 2.546283,-0.617281 4.976826,-1.504622 7.368788,-2.391963 5.902746,-2.160482 11.535432,-4.282385 18.7498996,-2.199062 0.887341,0.23148 1.388882,1.157401 1.118821,2.006162 -0.23148,0.848761 -1.118821,1.350301 -2.006162,1.118821 -6.2113856,-1.774682 -11.3811116,0.15432 -16.7437376,2.121902 -2.469122,0.925921 -3.009243,0.810181 -5.748426,1.466042 z"
       id="path121"
       inkscape:connector-curvature="0"
       style="clip-rule:evenodd;fill:#473931;fill-rule:nonzero;stroke-width:0.03858004;image-rendering:optimizeQuality;shape-rendering:geometricPrecision;text-rendering:geometricPrecision" />
    <path
       class="fil17"
       d="m -71.270487,34.080253 15.8564,0.771601 c 12.422785,0.617281 29.166524,-7.253048 41.164916,-9.37495 4.5524446,-0.810181 8.3718686,0.694441 9.8764906,2.662023 0.848761,-2.970663 -1.466042,-6.057067 -4.513865,-6.558607 -3.3950436,-0.578701 -8.7190886,0.848761 -14.7761556,2.700603 -5.246885,1.620361 -11.111052,3.549363 -16.782318,4.783925 -4.243805,0.887341 -8.79625,1.273141 -13.078634,1.427461 -6.867259,0.192901 -12.962909,-0.15432 -15.894992,0.154321 -2.160482,0.23148 -2.662023,2.199062 -1.851842,3.433623 z"
       id="path123"
       inkscape:connector-curvature="0"
       style="clip-rule:evenodd;fill:#847059;fill-rule:evenodd;stroke-width:0.03858004;image-rendering:optimizeQuality;shape-rendering:geometricPrecision;text-rendering:geometricPrecision" />
    <path
       class="fil18"
       d="m -34.233632,45.538529 c 0.771601,0.617281 0.925921,1.697522 0.34722,2.469123 -0.5787,0.771601 -1.697521,0.964501 -2.469122,0.3858 -4.822506,-3.587943 -9.645011,-5.555526 -14.544676,-6.018486 -4.861097,-0.462961 -9.837922,0.54012 -14.891911,2.816343 -0.848761,0.42438 -1.890422,0.03858 -2.314799,-0.848761 -0.385804,-0.887341 0,-1.929002 0.887337,-2.314802 5.59411,-2.584863 11.149636,-3.665108 16.666593,-3.163564 5.516946,0.540121 10.956732,2.700603 16.319358,6.674347 z m -21.219035,4.513865 c 1.350313,0 2.584875,0.540121 3.472216,1.427462 0.84876,0.887341 1.427461,2.083322 1.427461,3.433623 0,1.350302 -0.578701,2.584863 -1.427461,3.433624 v 0.03858 c -0.887341,0.848761 -2.121903,1.427462 -3.472216,1.427462 -0.65586,0 -1.273141,-0.154321 -1.813262,-0.385801 1.273142,1.234561 3.009255,1.967582 4.899677,1.967582 1.967582,0 3.742264,-0.771601 5.015405,-2.006162 l 0.07716,-0.07716 c 1.273141,-1.311721 2.083322,-3.086403 2.083322,-5.053985 0,-2.006163 -0.810181,-3.780844 -2.083322,-5.092566 v 0 c -1.311722,-1.311721 -3.086404,-2.083322 -5.092566,-2.083322 -1.967582,0 -3.742275,0.810181 -5.054001,2.083322 v 0 c -0.69444,0.694441 -1.234561,1.504622 -1.581781,2.430543 l 0.11574,-0.11574 0.07716,-0.07716 c 0.887345,-0.848761 2.083322,-1.350302 3.356468,-1.350302 z m 1.466053,3.395044 c -0.3858,-0.347221 -0.887352,-0.578701 -1.466053,-0.578701 -0.54012,0 -1.041661,0.1929 -1.388881,0.540121 l -0.07716,0.03858 c -0.347221,0.3858 -0.578701,0.887341 -0.578701,1.466041 0,0.578701 0.23148,1.080241 0.578701,1.466042 v 0 c 0.3858,0.3858 0.887341,0.617281 1.466041,0.617281 0.578701,0 1.080253,-0.231481 1.466053,-0.617281 0.385801,-0.385801 0.617281,-0.887341 0.617281,-1.466042 0,-0.5787 -0.23148,-1.080241 -0.617281,-1.466041 z m 1.620362,-9.18205 c 2.777763,0 5.246886,1.118821 7.060148,2.893503 l 0.03858,0.03858 c 1.774682,1.813262 2.893503,4.282385 2.893503,7.060148 0,2.739183 -1.118821,5.246885 -2.932083,7.060147 l -0.07716,0.07716 c -1.774682,1.736102 -4.243805,2.816343 -6.982988,2.816343 -2.739198,0 -5.246901,-1.118821 -7.060162,-2.893503 -1.774682,-1.813262 -2.893504,-4.320964 -2.893504,-7.060147 0,-2.777763 1.118822,-5.285466 2.893504,-7.060148 1.813261,-1.813262 4.320964,-2.932083 7.060162,-2.932083 z"
       id="path125"
       inkscape:connector-curvature="0"
       style="clip-rule:evenodd;fill:#373435;fill-rule:nonzero;stroke-width:0.03858004;image-rendering:optimizeQuality;shape-rendering:geometricPrecision;text-rendering:geometricPrecision" />
    <path
       class="fil16"
       d="m -48.894048,16.603494 c 3.819424,-0.50154 7.137307,-0.73302 10.570931,-0.73302 3.510784,0 7.060148,0.1929 11.342533,0.54012 l 0.61728,2.237643 c -4.629605,-0.347221 -8.371869,-0.578701 -11.959813,-0.578701 -3.549364,0 -7.021567,0.23148 -11.188212,0.848761 z"
       id="path127"
       inkscape:connector-curvature="0"
       style="clip-rule:evenodd;fill:#473931;fill-rule:nonzero;stroke-width:0.03858004;image-rendering:optimizeQuality;shape-rendering:geometricPrecision;text-rendering:geometricPrecision" />
    <polygon
       transform="matrix(0.03858004,0,0,0.03858004,-332.8046,-815.95391)"
       class="fil19"
       points="7379,21708 7438,21766 7379,21825 7362,21808 7404,21766 7362,21724 "
       id="polygon129"
       style="clip-rule:evenodd;fill:#fffbd6;fill-rule:nonzero;image-rendering:optimizeQuality;shape-rendering:geometricPrecision;text-rendering:geometricPrecision" />
    <polygon
       transform="matrix(0.03858004,0,0,0.03858004,-332.8046,-815.95391)"
       class="fil19"
       points="7418,21724 7435,21708 7493,21766 7435,21825 7418,21808 7460,21766 "
       id="polygon131"
       style="clip-rule:evenodd;fill:#fffbd6;fill-rule:nonzero;image-rendering:optimizeQuality;shape-rendering:geometricPrecision;text-rendering:geometricPrecision" />
    <polygon
       transform="matrix(0.03858004,0,0,0.03858004,-332.8046,-815.95391)"
       class="fil19"
       points="7521,21766 7480,21724 7496,21708 7555,21766 7496,21825 7480,21808 "
       id="polygon133"
       style="clip-rule:evenodd;fill:#fffbd6;fill-rule:nonzero;image-rendering:optimizeQuality;shape-rendering:geometricPrecision;text-rendering:geometricPrecision" />
    <circle
       class="fil20"
       cx="-49.704285"
       cy="23.740808"
       r="0.7330209"
       id="circle135"
       style="clip-rule:evenodd;fill:#fffbd6;fill-rule:evenodd;stroke-width:0.03858004;image-rendering:optimizeQuality;shape-rendering:geometricPrecision;text-rendering:geometricPrecision" />
    <path
       class="fil18"
       d="m -75.244231,83.69419 c -2.546283,1.736102 -3.163564,3.742264 -3.703684,5.632686 h -0.03858 c -0.540121,1.851842 -1.080242,3.626524 -2.854923,5.246886 -0.115741,0.11574 -0.154321,0.3858 -0.115741,0.733021 1.736102,-2.006163 3.665104,-3.549364 5.401206,-4.976826 0.385801,-0.30864 0.771601,-0.5787 1.273142,-1.003081 0.73302,-0.617281 0.84876,-2.546283 0.54012,-4.128064 -0.07716,-0.462961 -0.23148,-0.887341 -0.3858,-1.234562 -0.03858,-0.11574 -0.07716,-0.1929 -0.11574,-0.27006 z m 50.231229,-60.107708 -2.160482,-7.677428 c -3.780845,-1.273142 -7.445948,-1.813262 -10.995313,-1.774682 -3.510783,0.07716 -6.944407,0.694441 -10.300871,1.774682 l -3.626524,13.425854 c 3.780844,-0.15432 7.716009,-0.54012 11.419693,-1.350301 4.668185,-1.003081 9.41353,-2.469123 13.888815,-3.858004 z m -29.359412,5.825586 4.128064,-15.161956 0.540121,-0.1929 c 3.703684,-1.273142 7.523108,-2.006162 11.496852,-2.083322 3.973745,-0.03858 8.063229,0.5787 12.307034,2.083322 l 0.54012,0.1929 2.430543,8.680509 c 5.787006,-1.736102 10.802412,-2.970663 14.1974546,-2.430542 1.967582,0.34722 3.395044,1.157401 4.243805,2.314802 0.810181,1.003081 1.157401,2.276223 1.118821,3.587944 -0.03858,1.273141 -0.462961,2.623443 -1.195981,3.896584 -0.887341,1.543202 -2.237643,3.047823 -4.012325,4.205225 2.932084,0.925921 5.285466,2.623442 7.214468,4.706769 3.047823,3.356463 4.938245,7.638848 6.288547,11.265372 l 0.03858,0.15432 c 0.50154,2.353382 0.810181,3.703684 1.118821,5.131145 2.160482,9.645011 4.9382454,22.106364 4.4752854,25.385667 -0.1929,1.311722 -0.8101814,1.967583 -1.9290024,1.813262 h -0.03858 c -0.424381,-0.07716 -0.771601,-0.34722 -0.925921,-0.69444 -1.658942,-2.044743 -2.932083,-8.56477 -4.205225,-14.891896 -0.5787,-3.086404 -1.195981,-6.172807 -1.774682,-8.526189 -0.84876104,1.658941 -2.12190204,3.279303 -3.665104,4.783925 0.848761,0.3858 1.58174396,1.041661 2.08332296,1.890422 0.27006,0.42438 0.46296,0.887341 0.5787,1.388881 l 1.35030204,5.478366 c 0.1929,0.733021 -0.03858,1.543202 -0.308641,2.314803 0.848723,0.11574 1.427462,0.73302 1.813224,1.736101 0.50154,1.273142 0.50154,3.240724 0.50154,5.246886 -0.03858,1.504622 -0.03858,3.009243 0.192901,3.973744 0.03858,0.23148 0.07716,0.501541 0.03858,0.771601 -0.07716,0.424381 -0.347221,0.810181 -0.733021,1.195981 -25.7328876,6.404287 -50.9642346,6.134227 -74.9995886,2.623443 -0.925921,-0.23148 -0.771601,-0.30864 -2.160482,1.080241 -0.308641,0.270061 -0.810181,0.655861 -1.273142,1.041661 -2.044742,1.658942 -4.436704,3.549364 -6.211386,6.095647 -0.385801,0.578701 -0.925921,0.733021 -1.543202,0.578701 -0.42438,-0.07716 -0.810181,-0.424381 -1.118821,-0.887341 -0.11574,-0.270061 -0.27006,-0.578701 -0.3858,-0.964501 -0.462961,-1.388882 -0.578701,-3.510784 0.578696,-4.552445 1.234565,-1.118821 1.658946,-2.584863 2.121906,-4.050905 0.733021,-2.430542 1.504622,-4.938245 4.976826,-7.214467 h 0.03858 c 0.694441,-0.462961 1.388881,-0.501541 2.006166,-0.270061 -0.03858,-0.3858 0,-0.810181 0.07716,-1.195981 0.11574,-0.655861 0.42438,-1.273141 0.925925,-1.736102 0.03858,-0.03858 0.07716,-0.07716 0.11574,-0.11574 l -0.07716,-0.03858 c -1.118829,-0.50154 -3.240731,-1.504622 -4.552453,-3.356464 -1.234561,-1.697521 -1.736102,-4.012324 -0.27006,-7.021567 -2.469123,-0.771601 -4.398125,-1.774682 -5.63269,-3.086403 l -0.42438,-0.424381 c -3.202144,-3.510784 -11.265373,-12.191293 -14.698996,-9.99223 -0.424381,0.30864 -0.810181,0.46296 -1.157398,0.5787 -0.23148,0.07716 -0.46296,0.1929 -0.61728,0.30864 -0.34722,0.231481 -0.77161,0.617281 -1.15741,1.080242 -0.54012,0.54012 -1.11882,1.118821 -1.77468,1.581781 -2.3148,1.388882 -4.59102,3.047824 -6.86725,4.513865 -1.50462,0.925921 -3.24072,0.964501 -4.89966,0.462961 -1.85184,-0.578701 -3.58794,-1.851842 -4.62961,-3.163564 -3.58794,-4.591025 -0.46296,-8.603349 2.46913,-12.345613 1.11882,-1.427461 2.19906,-2.816343 2.7006,-4.089484 1.1574,-2.893503 2.3148,-4.783929 3.78084,-7.137312 l 0.23148,-0.3858 c 1.96759,-3.279304 3.39505,-3.973745 4.74535,-4.591025 0.1929,-0.11574 0.3858,-0.1929 0.54012,-0.30864 -0.0772,-0.154321 -0.1929,-0.385801 -0.27006,-0.694441 -0.27006,-0.694441 -0.23148,-1.003081 -0.1929,-1.273142 0,-0.07716 -0.0386,0.154321 -0.27006,-0.1929 -0.84876,-1.157401 -2.46912,-3.973744 -3.31788,-6.481447 -0.61728,-1.890422 -0.81018,-3.742264 0,-4.899665 0.42438,-0.578701 1.19598,-0.694441 1.77468,-0.34722 1.3503,0.7716 2.97066,2.970663 4.55244,5.053985 0.84876,1.195981 1.69752,2.353383 2.27623,3.047823 v 0 c 0.0386,-0.42438 0.0772,-0.848761 0.11574,-1.311721 0.0772,-0.733021 0.69444,-1.234561 1.427457,-1.157401 0.308641,0.03858 0.578701,0.15432 0.810181,0.3858 l 0.03858,0.03858 c 0.30864,0.30864 0.462961,0.501541 0.694441,0.887341 0.03858,-0.1929 0.03858,-0.3858 0.07716,-0.578701 0.03858,-0.73302 0.694441,-1.234561 1.388881,-1.195981 0.462961,0.03858 0.848761,0.308641 1.041662,0.694441 1.041661,1.658942 1.967582,1.658942 2.507702,1.658942 0.308641,0 0.578701,0 0.848761,0.07716 v 0 c 0.771601,0.1929 1.234561,0.54012 1.311722,1.273141 2.700606,0.462961 2.854926,1.388882 3.047823,2.430543 0.03858,0.23148 0.11574,0.46296 2.546286,0.771601 1.350298,0.1929 1.697522,0.887341 1.581782,1.890422 l -0.03858,0.11574 c 2.507703,0.42438 2.932083,1.774682 3.240724,2.816343 0.03858,0.11574 3.163563,0.23148 7.870332,0.27006 -0.11574,-0.30864 -0.15432,-0.655861 -0.15432,-1.003081 -0.03858,-0.501541 0.07716,-1.003081 0.30864,-1.466042 0.46296,-0.964501 1.388881,-1.736101 2.854923,-1.890422 1.581782,-0.1929 4.050904,-0.15432 7.021568,-0.11574 2.430542,0 5.208305,0.03858 8.140376,-0.03858 z m -16.049312,3.973744 c 0.15432,0.270061 0.3858,0.501541 0.733021,0.578701 2.854923,0 6.095646,0.03858 9.529274,0.03858 h 8.87342 c 12.847154,0 25.501408,-0.03858 27.50757,-0.07716 4.243805,-0.03858 7.484528,-0.07716 8.91199,-0.07716 1.041661,-0.07716 2.006162,-0.07716 2.932083,0 2.5462826,-1.003081 4.4367046,-2.777763 5.4783656,-4.629605 0.5787,-0.964501 0.887341,-1.967582 0.925921,-2.893503 0,-0.810181 -0.192901,-1.581782 -0.655861,-2.199062 -0.540121,-0.694441 -1.504622,-1.234562 -2.893503,-1.466042 -3.6265236,-0.617281 -9.9536506,1.350301 -17.0909576,3.549364 -4.513865,1.388881 -9.33637,2.893503 -14.081716,3.896584 -7.561688,1.658942 -16.049309,1.543202 -22.260695,1.504622 -2.893507,-0.03858 -5.285469,-0.03858 -6.790091,0.11574 -0.617281,0.07716 -0.964501,0.34722 -1.118821,0.65586 -0.07716,0.154321 -0.11574,0.347221 -0.11574,0.501541 0,0.1929 0.03858,0.34722 0.11574,0.50154 z m 47.684946,19.290025 c -0.15432,-0.694441 0.270061,-1.388882 0.964501,-1.543202 0.694441,-0.1929 1.388882,0.231481 1.581782,0.925921 0.733021,2.932083 0.1929,5.439786 -0.964501,7.523108 -1.118821,2.006162 -2.777763,3.626524 -4.436705,4.822505 -2.970663,2.160483 -20.061622,5.053986 -35.030689,5.131146 -5.51695,0.03858 -10.763835,-0.30864 -15.00764,-1.234561 -1.234561,2.237642 -0.964501,3.780844 -0.1929,4.861085 0.925921,1.311721 2.623443,2.083322 3.472204,2.507703 2.584862,1.118821 6.211386,1.813261 10.532355,2.044742 2.469123,0.07716 4.822505,0.07716 7.098727,0.03858 7.60028,-0.308641 16.319369,-1.581782 24.575498,-3.665104 3.472204,-0.887341 6.867248,-1.929002 10.030811,-3.124983 4.513865,-1.851842 8.98915,-4.166645 13.5801746,-6.867248 2.739183,-2.044742 4.822505,-4.243804 5.97990596,-6.597187 0.1929,-0.42438 0.34722,-0.925921 0.46296,-1.427461 0.231481,-0.771601 0.462961,-1.466042 0.733021,-2.006163 0.11574,-0.23148 0.347221,-0.46296 0.61728104,-0.5787 0.655861,-0.308641 1.427461,0 1.736102,0.655861 0.03858,0.11574 0.11574,0.27006 0.1929,0.46296 l -0.771601,-3.317884 c -1.234561,-3.395043 -2.97066304,-7.330207 -5.709846,-10.300871 -2.662023,-2.893507 -6.288547,-4.899669 -11.3811116,-4.552448 h -0.11574 c -1.350302,0 -4.629644,0.03858 -8.95057,0.11574 -15.817856,0.15432 -46.103172,0.50154 -53.47196,-0.27006 -0.617281,-0.07716 -1.157401,-0.192901 -1.581782,-0.347221 -3.317883,1.080241 -3.626524,0 -4.089484,-1.504621 -0.15432,-0.501541 -0.347221,-1.118822 -2.507707,-1.118822 -0.733017,0 -1.273137,-0.5787 -1.311717,-1.273141 0,-0.30864 0.03858,-0.540121 0.11574,-0.771601 -3.317888,-0.61728 -3.510784,-1.697522 -3.703684,-2.739183 -0.03858,-0.15432 -0.03858,-0.27006 -2.044742,-0.46296 -0.07716,0 -0.154321,0 -0.231481,-0.03858 -0.54012,-0.15432 -0.925924,-0.617281 -0.964501,-1.157402 -0.69444,-0.03858 -1.581781,-0.1929 -2.469126,-0.925921 l -0.15432,0.270061 c -0.270061,0.3858 -0.578697,0.69444 -1.003078,0.887341 -0.501544,0.23148 -1.080245,0.23148 -1.620365,-0.07716 -0.30864,0.848761 -0.964501,1.195981 -1.813262,1.118821 -1.42746,-0.11574 -3.0864,-2.391963 -4.86109,-4.783925 -0.61728,-0.810181 -1.19598,-1.620362 -1.77468,-2.353383 l 0.0386,0.1929 c 0.7716,2.237643 2.19906,4.745345 2.97067,5.787007 0.7716,1.080241 0.7716,1.388881 0.73302,1.890422 0,0 0,0.03858 0.0772,0.23148 0.0386,0.15432 -0.0386,0.07716 -0.0386,0.11574 0.30864,0.23148 0.5787,0.46296 0.84876,1.350301 0.15432,0.501541 0.0386,1.041662 -0.3858,1.388882 -0.73302,0.694441 -1.38888,1.003081 -2.04475,1.311721 -1.00306,0.501541 -2.04472,1.003081 -3.66509,3.626524 l -0.23148,0.385801 c -1.38888,2.276226 -2.46912,4.050908 -3.54936,6.751511 -0.65586,1.620361 -1.85184,3.124983 -3.08641,4.745345 -2.3148,2.970663 -4.78392,6.134226 -2.46912,9.10489 0.7716,0.964501 2.00616,1.890422 3.35647,2.276222 0.9645,0.30864 1.96758,0.30864 2.73918,-0.1929 l 6.79008,-4.436705 c 0.46296,-0.30864 0.92592,-0.771601 1.3503,-1.234561 0.50154,-0.540121 1.00308,-1.041661 1.58178,-1.427462 0.42438,-0.30864 0.7716,-0.42438 1.11882,-0.5787 0.23148,-0.07716 0.50154,-0.192901 0.73302,-0.347221 5.24689,-3.356463 14.351783,6.442867 18.016887,10.416611 l 0.385801,0.424381 c 1.157401,1.234561 3.124983,2.121902 5.709846,2.777763 0.1929,0 0.3858,0.03858 0.54012,0.11574 4.050905,0.925921 9.37495,1.273141 15.0848,1.273141 14.506107,-0.11574 30.825465,-2.700603 33.487488,-4.668185 1.388881,-1.003081 2.816343,-2.314802 3.703684,-3.935164 0.848761,-1.581782 1.234561,-3.433624 0.69444,-5.671266 z m 17.7853986,13.503014 -0.50154,0.270061 c -3.703684,2.623442 -8.3718686,4.938245 -13.5415946,6.867247 -5.208305,2.199062 -10.455191,3.819424 -15.972137,4.976825 -6.905828,1.427462 -14.236036,2.083323 -22.453596,2.083323 -0.65586,0 -1.311721,0 -1.967582,0 -3.665107,-0.07716 -7.484528,-0.231481 -11.496856,-0.540121 -0.3858,0 -0.61728,0.03858 -0.73302,0.1929 -0.07716,0.07716 -0.154321,0.23148 -0.192901,0.424381 -0.3858,1.813262 1.427462,0.73302 0.03858,5.092565 -0.11574,0.30864 -0.15432,0.617281 -0.07716,0.887341 0.03858,0.1929 0.15432,0.3858 0.347221,0.578701 0.23148,0.1929 0.54012,0.34722 1.003081,0.50154 9.18205,2.932083 33.140271,3.202144 51.19573,1.929002 6.095646,-0.42438 11.4968516,-1.041661 15.4320156,-1.813262 3.20214396,-0.61728 5.246886,-1.157401 5.516946,-1.543201 -0.23148,-1.234562 -0.23148,-2.816343 -0.23148,-4.398125 0.03858,-1.736102 0.03858,-3.472204 -0.27006,-4.320965 -1.23456204,0.501541 -1.92900204,0.11574 -2.314803,-0.810181 -0.27006,-0.69444 0,-1.504621 0.30864096,-2.353382 0.1929,-0.540121 0.3858,-1.118821 0.3858,-1.195981 L -1.8263974,67.529153 c -0.07716,-0.23148 -0.154321,-0.462961 -0.270061,-0.694441 -0.23148,-0.3858 -0.5787,-0.655861 -0.964501,-0.848761 -0.34722,-0.15432 -0.771601,-0.1929 -1.234561,-0.11574 v 0 c -0.1929,0.07716 -0.42438,0.15432 -0.655861,0.30864 z"
       id="path137"
       inkscape:connector-curvature="0"
       style="clip-rule:evenodd;fill:#373435;fill-rule:nonzero;stroke-width:0.03858004;image-rendering:optimizeQuality;shape-rendering:geometricPrecision;text-rendering:geometricPrecision" />
    <polygon
       transform="matrix(0.03858004,0,0,0.03858004,-332.8046,-815.95391)"
       class="fil20"
       points="8230,21728 8213,21802 8278,21792 "
       id="polygon139"
       style="clip-rule:evenodd;fill:#fffbd6;fill-rule:evenodd;image-rendering:optimizeQuality;shape-rendering:geometricPrecision;text-rendering:geometricPrecision" />
    <polygon
       transform="matrix(0.03858004,0,0,0.03858004,-332.8046,-815.95391)"
       class="fil20"
       points="8308,21721 8278,21792 8346,21790 "
       id="polygon141"
       style="clip-rule:evenodd;fill:#fffbd6;fill-rule:evenodd;image-rendering:optimizeQuality;shape-rendering:geometricPrecision;text-rendering:geometricPrecision" />
    <polygon
       transform="matrix(0.03858004,0,0,0.03858004,-332.8046,-815.95391)"
       class="fil20"
       points="8139,21819 8213,21802 8158,21745 "
       id="polygon143"
       style="clip-rule:evenodd;fill:#fffbd6;fill-rule:evenodd;image-rendering:optimizeQuality;shape-rendering:geometricPrecision;text-rendering:geometricPrecision" />
    <polygon
       transform="matrix(0.03858004,0,0,0.03858004,-332.8046,-815.95391)"
       class="fil20"
       points="8077,21769 8064,21839 8139,21819 "
       id="polygon145"
       style="clip-rule:evenodd;fill:#fffbd6;fill-rule:evenodd;image-rendering:optimizeQuality;shape-rendering:geometricPrecision;text-rendering:geometricPrecision" />
    <path
       class="fil20"
       d="m -11.934368,33.848773 c 1.273141,-0.501541 2.3533816,-1.195981 3.2793026,-2.006162 -5.5555256,-1.311722 -10.3008706,0.30864 -15.1619556,2.083322 0.03858,0 0.03858,0 0.03858,0 4.243805,-0.03858 7.484528,-0.07716 8.91199,-0.07716 1.041661,-0.07716 2.006162,-0.07716 2.932083,0 z"
       id="path147"
       inkscape:connector-curvature="0"
       style="clip-rule:evenodd;fill:#fffbd6;fill-rule:evenodd;stroke-width:0.03858004;image-rendering:optimizeQuality;shape-rendering:geometricPrecision;text-rendering:geometricPrecision" />
    <path
       class="fil20"
       d="m -25.668863,31.14817 c 5.902746,-2.160482 11.535432,-4.282385 18.7498996,-2.199062 0.1929,0.03858 0.347221,0.11574 0.501541,0.23148 0.42438,-0.733021 0.69444,-1.504622 0.810181,-2.199062 -1.890422,-1.350302 -5.0539856,-2.121903 -8.6419296,-1.504622 -9.104889,1.620362 -20.948962,6.520027 -31.558474,8.526189 4.320965,0 8.48761,0 11.998393,0 0.192901,-0.23148 0.462961,-0.3858 0.771601,-0.46296 2.546283,-0.617281 4.976826,-1.504622 7.368788,-2.391963 z"
       id="path149"
       inkscape:connector-curvature="0"
       style="clip-rule:evenodd;fill:#fffbd6;fill-rule:evenodd;stroke-width:0.03858004;image-rendering:optimizeQuality;shape-rendering:geometricPrecision;text-rendering:geometricPrecision" />
    <path
       class="fil20"
       d="m -40.676499,27.984607 c 2.662022,-0.578701 5.324046,-1.273142 7.986069,-2.083323 -3.395044,0.115741 -6.867248,0.231481 -10.146552,0.347221 -3.086403,0.11574 -5.709846,0.23148 -8.487609,0.30864 l -0.771601,2.777763 c 3.780844,-0.15432 7.716009,-0.54012 11.419693,-1.350301 z"
       id="path151"
       inkscape:connector-curvature="0"
       style="clip-rule:evenodd;fill:#fffbd6;fill-rule:evenodd;stroke-width:0.03858004;image-rendering:optimizeQuality;shape-rendering:geometricPrecision;text-rendering:geometricPrecision" />
    <path
       class="fil20"
       d="m -49.858549,21.040199 c 2.391962,-0.07716 3.742264,-0.11574 6.828667,-0.27006 6.172807,-0.23148 11.072472,-0.462961 17.129539,-0.3858 l -0.501541,-1.736102 c -4.591025,-0.347221 -8.333289,-0.578701 -11.921233,-0.578701 -3.472204,0 -6.905827,0.23148 -10.956732,0.810181 z"
       id="path153"
       inkscape:connector-curvature="0"
       style="clip-rule:evenodd;fill:#fffbd6;fill-rule:evenodd;stroke-width:0.03858004;image-rendering:optimizeQuality;shape-rendering:geometricPrecision;text-rendering:geometricPrecision" />
    <path
       class="fil20"
       d="m -48.623988,16.564914 c 3.703684,-0.50154 6.982988,-0.69444 10.300871,-0.69444 3.510784,0 7.060148,0.1929 11.303953,0.50154 l -0.15432,-0.46296 c -3.780845,-1.273142 -7.445948,-1.813262 -10.995313,-1.774682 -3.510783,0.07716 -6.944407,0.694441 -10.300871,1.774682 z"
       id="path155"
       inkscape:connector-curvature="0"
       style="clip-rule:evenodd;fill:#fffbd6;fill-rule:evenodd;stroke-width:0.03858004;image-rendering:optimizeQuality;shape-rendering:geometricPrecision;text-rendering:geometricPrecision" />
    <path
       class="fil21"
       d="m -54.719646,77.752864 c 7.60028,-0.308641 16.319369,-1.581782 24.575498,-3.665104 3.472204,-0.887341 6.867248,-1.929002 10.030811,-3.124983 4.513865,-1.851842 8.98915,-4.166645 13.5801746,-6.867248 2.739183,-2.044742 4.822505,-4.243804 5.97990596,-6.597187 0.1929,-0.42438 0.34722,-0.925921 0.46296,-1.427461 0.231481,-0.771601 0.462961,-1.466042 0.733021,-2.006163 0.11574,-0.23148 0.347221,-0.46296 0.61728104,-0.5787 0.655861,-0.308641 1.427461,0 1.736102,0.655861 l 0.1929,0.46296 -0.771601,-3.317884 c -1.234561,-3.395043 -2.97066304,-7.330207 -5.709846,-10.300871 -2.662023,-2.893507 -6.288547,-4.899669 -11.3811116,-4.552448 h -0.11574 c -1.350302,0 -4.629644,0.03858 -8.95057,0.11574 -15.817856,0.15432 -46.103172,0.50154 -53.47196,-0.27006 -0.617281,-0.07716 -1.157401,-0.192901 -1.581782,-0.347221 -3.317883,1.080241 -3.626524,0 -4.089484,-1.504621 -0.15432,-0.501541 -0.347221,-1.118822 -2.507707,-1.118822 -0.733017,0 -1.273137,-0.5787 -1.311717,-1.273141 0,-0.30864 0.03858,-0.540121 0.11574,-0.771601 -3.317888,-0.61728 -3.510784,-1.697522 -3.703684,-2.739183 -0.03858,-0.15432 -0.03858,-0.27006 -2.044742,-0.46296 l -0.231481,-0.03858 c -0.54012,-0.15432 -0.925924,-0.617281 -0.964501,-1.157402 -0.69444,-0.03858 -1.581781,-0.1929 -2.469126,-0.925921 l -0.15432,0.270061 c -0.270061,0.3858 -0.578697,0.69444 -1.003078,0.887341 -0.501544,0.23148 -1.080245,0.23148 -1.620365,-0.07716 -0.30864,0.848761 -0.964501,1.195981 -1.813262,1.118821 -1.42746,-0.11574 -3.0864,-2.391963 -4.86109,-4.783925 -0.61728,-0.810181 -1.19598,-1.620362 -1.77468,-2.353383 l 0.0386,0.1929 c 0.7716,2.237643 2.19906,4.745345 2.97067,5.787007 0.7716,1.080241 0.7716,1.388881 0.73302,1.890422 0,0 0,0.03858 0.0772,0.23148 0.0386,0.15432 -0.0386,0.07716 -0.0386,0.11574 0.30864,0.23148 0.5787,0.46296 0.84876,1.350301 0.15432,0.501541 0.0386,1.041662 -0.3858,1.388882 -0.73302,0.694441 -1.38888,1.003081 -2.04475,1.311721 -1.00306,0.501541 -2.04472,1.003081 -3.66509,3.626524 l -0.23148,0.385801 c -1.38888,2.276226 -2.46912,4.050908 -3.54936,6.751511 -0.65586,1.620361 -1.85184,3.124983 -3.08641,4.745345 -2.3148,2.970663 -4.78392,6.134226 -2.46912,9.10489 0.7716,0.964501 2.00616,1.890422 3.35647,2.276222 0.9645,0.30864 1.96758,0.30864 2.73918,-0.1929 l 6.79008,-4.436705 c 0.46296,-0.30864 0.92592,-0.771601 1.3503,-1.234561 0.50154,-0.540121 1.00308,-1.041661 1.58178,-1.427462 0.42438,-0.30864 0.7716,-0.42438 1.11882,-0.5787 0.23148,-0.07716 0.50154,-0.192901 0.73302,-0.347221 5.24689,-3.356463 14.351783,6.442867 18.016887,10.416611 l 0.385801,0.424381 c 1.157401,1.234561 3.124983,2.121902 5.709846,2.777763 0.1929,0 0.3858,0.03858 0.54012,0.11574 4.050905,0.925921 9.37495,1.273141 15.0848,1.273141 14.506107,-0.11574 30.825465,-2.700603 33.487488,-4.668185 1.388881,-1.003081 2.816343,-2.314802 3.703684,-3.935164 0.848761,-1.581782 1.234561,-3.433624 0.69444,-5.671266 -0.15432,-0.694441 0.270061,-1.388882 0.964501,-1.543202 0.694441,-0.1929 1.388882,0.231481 1.581782,0.925921 0.733021,2.932083 0.1929,5.439786 -0.964501,7.523108 -1.118821,2.006162 -2.777763,3.626524 -4.436705,4.822505 -2.970663,2.160483 -20.061622,5.053986 -35.030689,5.131146 -5.516949,0.03858 -10.763835,-0.30864 -15.00764,-1.234561 -1.234561,2.237642 -0.964501,3.780844 -0.1929,4.861085 0.925921,1.311721 2.623443,2.083322 3.472204,2.507703 2.584863,1.118821 6.211387,1.813261 10.532355,2.044742 2.469123,0.07716 4.822505,0.07716 7.098727,0.03858 z m 20.486014,-32.214335 c 0.771601,0.617281 0.925921,1.697522 0.34722,2.469123 -0.5787,0.771601 -1.697521,0.964501 -2.469122,0.3858 -4.822506,-3.587943 -9.645011,-5.555526 -14.544676,-6.018486 -4.861097,-0.462961 -9.837922,0.54012 -14.891911,2.816343 -0.848761,0.42438 -1.890422,0.03858 -2.314799,-0.848761 -0.385804,-0.887341 0,-1.929002 0.887337,-2.314802 5.59411,-2.584863 11.149636,-3.665108 16.666593,-3.163564 5.516946,0.540121 10.956732,2.700603 16.319358,6.674347 z m -8.140389,8.71909 c 0,2.739183 -1.118821,5.246885 -2.932083,7.060147 l -0.07716,0.07716 c -1.774682,1.736102 -4.243805,2.816343 -6.982988,2.816343 -2.739194,0 -5.246897,-1.118821 -7.060159,-2.893503 -1.774681,-1.813262 -2.893503,-4.320964 -2.893503,-7.060147 0,-2.777763 1.118822,-5.285466 2.893503,-7.060148 1.813262,-1.813262 4.320965,-2.932083 7.060159,-2.932083 2.777763,0 5.246886,1.118821 7.060148,2.893503 l 0.03858,0.03858 c 1.774682,1.813262 2.893503,4.282385 2.893503,7.060148 z"
       id="path157"
       inkscape:connector-curvature="0"
       style="clip-rule:evenodd;fill:#a9abae;fill-rule:evenodd;stroke-width:0.03858004;image-rendering:optimizeQuality;shape-rendering:geometricPrecision;text-rendering:geometricPrecision" />
    <path
       class="fil14 str2"
       d="m -78.947915,89.326876 z m 3.665104,0 c 0.73302,-0.617281 0.84876,-2.546283 0.54012,-4.128064 -0.07716,-0.462961 -0.23148,-0.887341 -0.3858,-1.234562 l -0.11574,-0.27006 c -2.546283,1.736102 -3.163564,3.742264 -3.742264,5.632686 -0.540121,1.851842 -1.080242,3.626524 -2.854923,5.246886 -0.115741,0.11574 -0.154321,0.3858 -0.115741,0.733021 1.736102,-2.006163 3.665104,-3.549364 5.401206,-4.976826 z"
       id="path159"
       inkscape:connector-curvature="0"
       style="clip-rule:evenodd;fill:#ed3237;fill-rule:evenodd;stroke:#373435;stroke-width:0.77160096;image-rendering:optimizeQuality;shape-rendering:geometricPrecision;text-rendering:geometricPrecision" />
    <path
       class="fil8"
       d="m -56.918708,56.379521 z m 3.549375,-1.466042 c 0,-0.5787 -0.23148,-1.080241 -0.617281,-1.466041 -0.3858,-0.347221 -0.887352,-0.578701 -1.466053,-0.578701 -0.54012,0 -1.041661,0.1929 -1.388881,0.540121 l -0.07716,0.03858 c -0.347221,0.3858 -0.578701,0.887341 -0.578701,1.466041 0,0.578701 0.23148,1.080241 0.578701,1.466042 0.3858,0.3858 0.887341,0.617281 1.466041,0.617281 0.578701,0 1.080253,-0.231481 1.466053,-0.617281 0.385801,-0.385801 0.617281,-0.887341 0.617281,-1.466042 z"
       id="path161"
       inkscape:connector-curvature="0"
       style="clip-rule:evenodd;fill:#fefefe;fill-rule:evenodd;stroke-width:0.03858004;image-rendering:optimizeQuality;shape-rendering:geometricPrecision;text-rendering:geometricPrecision" />
    <path
       class="fil8"
       d="m -51.980451,58.347103 z m 4.706765,-9.18205 z m -10.146563,0 z m 5.439798,2.314803 c 0.84876,0.887341 1.427461,2.083322 1.427461,3.433623 0,1.350302 -0.578701,2.584863 -1.427461,3.472204 -0.887341,0.848761 -2.121903,1.427462 -3.472216,1.427462 -0.65586,0 -1.273141,-0.154321 -1.813262,-0.385801 1.273142,1.234561 3.009255,1.967582 4.899677,1.967582 1.967582,0 3.742264,-0.771601 5.015405,-2.006162 l 0.07716,-0.07716 c 1.273141,-1.311721 2.083322,-3.086403 2.083322,-5.053985 0,-2.006163 -0.810181,-3.780844 -2.083322,-5.092566 -1.311722,-1.311721 -3.086404,-2.083322 -5.092566,-2.083322 -1.967582,0 -3.742275,0.810181 -5.054001,2.083322 -0.69444,0.694441 -1.234561,1.504622 -1.581781,2.430543 l 0.11574,-0.11574 0.07716,-0.07716 c 0.887345,-0.848761 2.083322,-1.350302 3.356463,-1.350302 1.350317,0 2.584879,0.540121 3.47222,1.427462 z"
       id="path163"
       inkscape:connector-curvature="0"
       style="clip-rule:evenodd;fill:#fefefe;fill-rule:evenodd;stroke-width:0.03858004;image-rendering:optimizeQuality;shape-rendering:geometricPrecision;text-rendering:geometricPrecision" />
    <path
       class="fil22 str2"
       d="m -4.2955204,65.870211 z m 5.709846,15.817817 c 0.03858,-1.736102 0.03858,-3.472204 -0.27006,-4.320965 -1.23456204,0.501541 -1.92900204,0.11574 -2.314803,-0.810181 -0.27006,-0.69444 0,-1.504621 0.30864096,-2.353382 0.1929,-0.540121 0.3858,-1.118821 0.3858,-1.195981 L -1.8263974,67.529153 c -0.07716,-0.23148 -0.154321,-0.462961 -0.270061,-0.694441 -0.23148,-0.3858 -0.5787,-0.655861 -0.964501,-0.848761 -0.34722,-0.15432 -0.771601,-0.1929 -1.234561,-0.11574 -0.1929,0.07716 -0.42438,0.15432 -0.655861,0.30864 l -0.50154,0.270061 c -3.703684,2.623442 -8.3718686,4.938245 -13.5415946,6.867247 -5.208305,2.199062 -10.455191,3.819424 -15.972137,4.976825 -6.905828,1.427462 -14.236036,2.083323 -22.453596,2.083323 -0.65586,0 -1.311721,0 -1.967582,0 -3.665107,-0.07716 -7.484528,-0.231481 -11.496856,-0.540121 -0.3858,0 -0.61728,0.03858 -0.73302,0.1929 -0.07716,0.07716 -0.154321,0.23148 -0.192901,0.424381 -0.3858,1.813262 1.427462,0.73302 0.03858,5.092565 -0.11574,0.30864 -0.15432,0.617281 -0.07716,0.887341 0.03858,0.1929 0.15432,0.3858 0.347221,0.578701 0.23148,0.1929 0.54012,0.34722 1.003081,0.50154 9.18205,2.932083 33.140271,3.202144 51.19573,1.929002 6.095646,-0.42438 11.4968516,-1.041661 15.4320156,-1.813262 3.20214396,-0.61728 5.246886,-1.157401 5.516946,-1.543201 -0.23148,-1.234562 -0.23148,-2.816343 -0.23148,-4.398125 z"
       id="path165"
       inkscape:connector-curvature="0"
       style="clip-rule:evenodd;fill:#ed3237;fill-rule:evenodd;stroke:#373435;stroke-width:0.77160096;image-rendering:optimizeQuality;shape-rendering:geometricPrecision;text-rendering:geometricPrecision" />
    <path
       class="fil23 str2"
       d="m -62.937194,120.22949 c 0,-1.42746 -0.03858,-2.16048 0.07716,-2.7006 h -7.407368 c -0.23148,0.88734 -0.424381,1.81326 -0.462961,2.62344 0.03858,0.30864 1.736102,0.50154 3.549364,0.50154 h 2.546283 c 0.925921,-0.11574 1.658942,-0.34722 1.697522,-0.42438 z"
       id="path167"
       inkscape:connector-curvature="0"
       style="clip-rule:evenodd;fill:#96989a;fill-rule:evenodd;stroke:#373435;stroke-width:0.77160096;image-rendering:optimizeQuality;shape-rendering:geometricPrecision;text-rendering:geometricPrecision" />
    <path
       class="fil23 str2"
       d="m -58.61623,117.52889 c -0.46296,0.61728 -0.848761,1.42746 -1.041661,2.97066 0.03858,0.0772 0.1929,0.15432 0.308641,0.15432 h 5.787017 c 1.504621,-0.54012 1.157401,-1.7361 1.581782,-2.85492 0.03858,-0.11574 0.07716,-0.1929 0.11574,-0.27006 z"
       id="path169"
       inkscape:connector-curvature="0"
       style="clip-rule:evenodd;fill:#96989a;fill-rule:evenodd;stroke:#373435;stroke-width:0.77160096;image-rendering:optimizeQuality;shape-rendering:geometricPrecision;text-rendering:geometricPrecision" />
    <path
       class="fil23 str2"
       d="m -29.256807,117.52889 c -0.733021,0.92592 -1.273141,1.77468 -1.311721,2.7006 0.03858,0.30864 0.848761,0.42438 1.427461,0.42438 h 6.134227 c 2.469123,-0.50154 0.810181,-1.65894 1.581782,-3.12498 z"
       id="path171"
       inkscape:connector-curvature="0"
       style="clip-rule:evenodd;fill:#96989a;fill-rule:evenodd;stroke:#373435;stroke-width:0.77160096;image-rendering:optimizeQuality;shape-rendering:geometricPrecision;text-rendering:geometricPrecision" />
    <path
       class="fil23 str2"
       d="m -4.4112604,117.52889 c -0.578701,0.81018 -1.041661,1.62036 -1.195981,2.54628 0.07716,0.5787 0.964501,0.5787 1.427461,0.5787 h 6.828667 c 0.501541,0 1.118822,0 1.118822,-0.42438 -0.07716,-1.27314 -0.231481,-2.08332 -0.308641,-2.7006 z"
       id="path173"
       inkscape:connector-curvature="0"
       style="clip-rule:evenodd;fill:#96989a;fill-rule:evenodd;stroke:#373435;stroke-width:0.77160096;image-rendering:optimizeQuality;shape-rendering:geometricPrecision;text-rendering:geometricPrecision" />
  </g>
</svg>
