<?xml version="1.0" encoding="UTF-8" standalone="no"?>
<!-- Created with Inkscape (http://www.inkscape.org/) -->

<svg
   xmlns:dc="http://purl.org/dc/elements/1.1/"
   xmlns:cc="http://creativecommons.org/ns#"
   xmlns:rdf="http://www.w3.org/1999/02/22-rdf-syntax-ns#"
   xmlns:svg="http://www.w3.org/2000/svg"
   xmlns="http://www.w3.org/2000/svg"
   xmlns:sodipodi="http://sodipodi.sourceforge.net/DTD/sodipodi-0.dtd"
   xmlns:inkscape="http://www.inkscape.org/namespaces/inkscape"
   width="132.29167mm"
   height="122.02935mm"
   viewBox="0 0 132.29167 122.02935"
   version="1.1"
   id="svg7991"
   inkscape:version="0.92.1 r15371"
   sodipodi:docname="egipto.svg">
  <defs
     id="defs7985" />
  <sodipodi:namedview
     id="base"
     pagecolor="#ffffff"
     bordercolor="#666666"
     borderopacity="1.0"
     inkscape:pageopacity="0.0"
     inkscape:pageshadow="2"
     inkscape:zoom="0.35"
     inkscape:cx="-200.04133"
     inkscape:cy="30.036615"
     inkscape:document-units="mm"
     inkscape:current-layer="layer1"
     showgrid="false"
     fit-margin-top="0"
     fit-margin-left="0"
     fit-margin-right="0"
     fit-margin-bottom="0"
     inkscape:window-width="1366"
     inkscape:window-height="719"
     inkscape:window-x="0"
     inkscape:window-y="0"
     inkscape:window-maximized="1" />
  <metadata
     id="metadata7988">
    <rdf:RDF>
      <cc:Work
         rdf:about="">
        <dc:format>image/svg+xml</dc:format>
        <dc:type
           rdf:resource="http://purl.org/dc/dcmitype/StillImage" />
        <dc:title></dc:title>
      </cc:Work>
    </rdf:RDF>
  </metadata>
  <g
     inkscape:label="Layer 1"
     inkscape:groupmode="layer"
     id="layer1"
     transform="translate(-38.564507,-34.75117)">
    <g
       transform="matrix(0.04608766,0,0,0.04608766,-953.49965,-962.10426)"
       style="clip-rule:evenodd;fill-rule:evenodd;image-rendering:optimizeQuality;shape-rendering:geometricPrecision;text-rendering:geometricPrecision"
       id="_2481018568912">
      <path
         class="fil24 str9"
         d="m 24182,23640 c -3,37 -7,74 -9,106 -10,195 26,333 25,393 -56,32 -35,30 -31,107 -5,7 -15,6 -27,6 h -141 c -10,0 -23,-2 -25,-9 8,-54 71,-87 78,-168 6,-76 6,-218 -5,-291 -9,-69 -30,-122 -60,-170 60,-3 133,-20 193,-22 z m -322,-21 c 0,88 5,77 -70,196 -21,33 -36,63 -55,97 -102,187 -24,214 -77,264 -36,35 10,72 -33,76 -13,1 -127,-1 -147,0 -52,2 18,-74 28,-88 66,-86 92,-210 134,-322 35,-92 58,-102 37,-216 61,-3 122,-5 183,-7 z m -865,16 c 2,16 3,31 2,47 -3,42 -12,56 -9,107 5,85 62,343 55,367 -5,20 -15,17 -23,36 -8,22 -2,60 -29,60 h -114 c -2,0 -16,-6 -15,-14 14,-130 100,-55 28,-459 -6,-34 -8,-34 -22,-60 -13,-25 -12,-43 -20,-69 -3,86 -32,137 -33,236 0,80 12,189 6,261 -43,33 -36,23 -35,92 -2,6 -8,13 -18,13 h -156 c -7,0 -13,-2 -13,-8 2,-32 28,-80 45,-103 144,-198 50,-340 70,-496 0,-3 0,-6 0,-10 z"
         id="path176"
         inkscape:connector-curvature="0"
         style="fill:#a45e4d;stroke:#373435;stroke-width:50;stroke-linecap:round;stroke-linejoin:round" />
      <path
         class="fil25 str10"
         d="m 23756,22219 h -1020 l 21,106 981,-12 z m -397,1416 h -872 c -17,-4 -34,-9 -48,-16 -19,-9 -35,-21 -47,-36 v 0 c -13,-17 -19,-36 -17,-58 v 0 c 1,-9 4,-18 8,-28 l 112,-231 c -24,-15 -41,-33 -51,-53 -11,-20 -15,-42 -12,-63 2,-21 10,-41 24,-59 8,-11 19,-20 31,-29 -211,-94 -336,-336 -450,-555 -26,-50 -51,-98 -76,-144 -13,-17 -24,-27 -33,-28 -8,-1 -19,6 -33,22 -25,35 -47,67 -69,100 -23,34 -46,68 -70,102 l -1,1 c -24,30 -43,35 -63,19 -15,-12 -16,-33 -16,-64 0,-18 -1,-42 -3,-68 -6,-52 -84,-64 -128,-138 -1,-2 -2,-4 -2,-5 -56,-147 72,-219 163,-318 61,-68 111,-135 129,-153 31,-39 230,-267 301,-180 h 1 c 46,39 -173,237 30,132 70,-38 40,72 56,199 11,94 48,197 130,275 45,55 105,92 182,89 58,-2 116,-4 175,-7 -2,-3 -4,-6 -5,-10 l -117,-407 c 0,-1 -1,-2 -1,-3 v 0 -1 0 -1 0 0 0 0 0 0 0 -1 0 0 0 0 0 0 -1 0 0 0 0 0 0 -1 0 0 0 0 0 0 -1 0 0 0 0 0 -1 0 0 0 0 0 0 0 -1 0 0 -1 0 0 -1 0 0 l 1,-1 v 0 -1 0 0 0 -1 0 -1 0 h 1 v -1 0 0 -1 0 -1 0 h 1 v 0 -1 0 -1 0 h 1 v 0 -1 0 0 -1 h 1 v 0 -1 h 1 v -1 0 c 1,-1 1,-1 2,-2 v 0 c 1,-1 2,-2 3,-3 127,-102 382,-150 636,-150 269,0 540,53 660,150 10,8 13,22 9,34 l -113,391 c -1,5 -3,9 -7,13 168,26 293,125 384,259 136,197 198,470 225,686 2,16 -10,31 -27,33 -16,2 -31,-9 -33,-26 -26,-208 -85,-471 -215,-659 v 0 c -21,-31 -44,-60 -70,-87 7,8 13,17 19,26 h 1 c 53,75 64,179 48,279 l -1,6 c 91,94 110,239 129,386 11,83 22,166 46,239 1,3 2,6 2,9 3,31 -5,56 -19,76 -11,15 -25,27 -42,36 l -64,12 c -52,2 -104,4 -155,7 -218,9 -435,17 -652,22 z m 371,-72 c 4,-2 8,-3 13,-3 3,0 7,1 10,2 67,-2 134,-5 201,-7 3,-1 6,-1 9,-1 77,-3 155,-6 233,-10 12,-6 21,-13 27,-21 6,-8 8,-19 8,-33 -26,-78 -37,-163 -48,-248 -15,-120 -31,-239 -86,-320 -26,86 -69,164 -118,214 -153,155 -365,267 -594,345 -124,42 -252,75 -378,100 117,-1 234,-3 350,-6 124,-3 248,-7 373,-12 z m -1164,13 c 1,0 2,0 4,0 238,-15 528,-61 796,-152 113,-39 222,-86 322,-143 -78,14 -158,26 -241,34 -129,14 -265,20 -405,17 -26,0 -51,-1 -77,-1 -130,-1 -262,-2 -398,-36 -6,-1 -11,-3 -17,-4 l -112,232 c -2,3 -2,6 -3,9 v 0 c 0,5 2,10 5,14 5,7 14,13 25,18 15,7 33,12 52,15 16,-1 32,-2 49,-3 z m 1105,-1013 c 17,12 20,36 8,53 -13,16 -37,20 -53,7 -104,-77 -208,-119 -313,-129 -105,-10 -212,12 -320,61 -19,9 -41,1 -50,-18 -9,-19 0,-42 19,-50 120,-55 240,-79 358,-68 119,12 236,58 351,144 z m -456,96 c 29,0 55,12 74,31 19,19 31,45 31,74 0,29 -12,55 -31,74 v 0 c -19,19 -45,31 -74,31 -14,0 -27,-3 -39,-8 27,26 65,43 106,43 42,0 80,-17 107,-44 l 2,-2 c 28,-27 45,-66 45,-109 0,-42 -17,-81 -45,-109 v 0 c -28,-27 -67,-45 -109,-45 -43,0 -81,18 -109,45 v 0 c -15,15 -27,33 -35,53 l 3,-3 2,-2 c 19,-18 44,-29 72,-29 z m 32,74 c -8,-8 -20,-13 -32,-13 -11,0 -22,4 -30,12 l -1,1 c -8,8 -13,19 -13,31 0,12 5,23 13,31 v 1 c 8,7 19,12 31,12 12,0 24,-5 32,-13 8,-8 13,-19 13,-31 0,-12 -5,-23 -13,-31 z m 35,-198 c 59,0 113,24 151,63 h 1 c 39,39 62,92 62,151 0,60 -24,113 -62,152 l -2,2 c -39,38 -92,61 -150,61 -59,0 -113,-24 -152,-63 -39,-39 -63,-92 -63,-152 0,-59 24,-112 63,-151 39,-39 93,-63 152,-63 z m 542,657 c 40,-31 77,-63 112,-98 53,-54 97,-146 116,-241 v -1 c 1,-6 2,-12 3,-19 14,-86 6,-173 -38,-235 -39,-54 -78,-96 -122,-130 -42,-33 -88,-59 -141,-80 -9,-1 -19,-2 -29,-3 -302,-18 -611,-3 -916,12 -90,4 -180,8 -271,12 h -1 c -99,3 -174,-43 -231,-111 -72,-88 -113,-213 -131,-316 -11,-60 -40,-47 -38,-84 -15,11 -31,20 -48,29 -32,16 -37,-36 -76,-28 -5,1 -10,1 -14,-1 -40,-11 36,-89 48,-129 2,-8 5,-15 7,-23 -35,27 -145,98 -176,130 -14,14 -277,303 -278,305 -12,34 -13,67 -2,99 46,77 127,92 135,160 1,15 2,29 3,43 14,-21 27,-40 40,-60 24,-34 47,-69 71,-102 l 1,-2 c 28,-34 57,-48 87,-45 28,4 53,23 76,55 l 1,3 c 26,45 52,96 79,147 121,235 257,497 495,552 3,1 6,1 9,2 29,7 61,10 94,9 l 420,-7 c 38,2 77,6 117,10 151,16 313,33 405,-70 20,-23 21,-77 21,-126 0,-18 0,-35 1,-50 1,-17 15,-29 32,-28 16,1 29,15 28,32 -1,15 -1,30 -1,46 0,60 0,126 -36,166 -112,127 -290,108 -457,91 -38,-4 -77,-8 -112,-10 l -417,6 c -39,1 -76,-3 -111,-10 -34,3 -60,17 -75,36 -7,9 -11,19 -12,28 -1,10 0,20 5,29 11,21 38,40 84,51 130,33 258,34 385,35 26,0 52,0 77,1 137,2 270,-4 398,-17 131,-13 256,-35 372,-63 4,0 7,-1 11,0 z m -51,-1033 21,-72 h -1096 l 20,72 z m 38,-133 22,-76 c -194,18 -389,27 -584,27 -196,0 -393,-8 -590,-27 l 21,76 z m -32,-132 c -129,-58 -337,-90 -545,-90 -199,0 -396,29 -524,90 180,16 360,23 539,23 177,-1 354,-8 530,-23 z"
         id="path178"
         inkscape:connector-curvature="0"
         style="fill:#373435;fill-rule:nonzero;stroke:#373435;stroke-width:7.61999989" />
      <path
         class="fil26"
         d="m 23042,23332 c -148,-3 -348,3 -492,-41 l -115,241 c -3,26 61,46 82,47 l 49,-3 h 4 c 238,-15 528,-61 796,-152 113,-39 222,-86 322,-143 -209,39 -427,55 -646,51 z"
         id="path180"
         inkscape:connector-curvature="0"
         style="fill:#fefefe" />
      <path
         class="fil26"
         d="m 23979,23136 c -241,245 -628,378 -972,445 l 723,-18 23,-1 443,-18 c 16,-4 39,-29 35,-54 -26,-78 -37,-163 -48,-248 -15,-120 -31,-239 -86,-320 -26,86 -69,164 -118,214 z"
         id="path182"
         inkscape:connector-curvature="0"
         style="fill:#fefefe" />
      <path
         class="fil26"
         d="m 23391,22858 c 28,-27 45,-66 45,-109 0,-42 -17,-81 -45,-109 v 0 c -28,-27 -67,-45 -109,-45 -43,0 -81,18 -109,45 v 0 c -15,15 -27,33 -35,53 l 3,-3 2,-2 c 19,-18 44,-29 72,-29 29,0 55,12 74,31 19,19 31,45 31,74 0,29 -12,55 -31,74 v 0 c -19,19 -45,31 -74,31 -14,0 -27,-3 -39,-8 27,26 65,43 106,43 42,0 80,-17 107,-44 z"
         id="path184"
         inkscape:connector-curvature="0"
         style="fill:#fefefe" />
      <circle
         class="fil24"
         cx="23235"
         cy="22764"
         r="120"
         id="circle186"
         style="fill:#a45e4d" />
      <polygon
         class="fil26"
         points="22757,22325 23738,22313 23756,22219 22736,22219 "
         id="polygon188"
         style="fill:#fefefe" />
      <polygon
         class="fil26"
         points="22718,22159 23773,22159 23794,22087 22698,22087 "
         id="polygon190"
         style="fill:#fefefe" />
      <path
         class="fil26"
         d="m 22680,22026 h 1131 l 22,-76 c -194,18 -389,27 -584,27 -196,0 -393,-8 -590,-27 z"
         id="path192"
         inkscape:connector-curvature="0"
         style="fill:#fefefe" />
      <path
         class="fil26"
         d="m 22710,21894 c 180,16 360,23 539,23 177,-1 354,-8 530,-23 -129,-58 -337,-90 -545,-90 -199,0 -396,29 -524,90 z"
         id="path194"
         inkscape:connector-curvature="0"
         style="fill:#fefefe" />
      <path
         class="fil27 str11"
         d="m 23824,23192 c 40,-31 77,-63 112,-98 53,-54 97,-146 116,-241 v -1 l 3,-19 c 14,-86 6,-173 -38,-235 -39,-54 -78,-96 -122,-130 -42,-33 -88,-59 -141,-80 -9,-1 -19,-2 -29,-3 -302,-18 -611,-3 -916,12 -90,4 -180,8 -271,12 h -1 c -99,3 -174,-43 -231,-111 -72,-88 -109,-207 -128,-310 -11,-60 5,-168 -25,-154 -231,111 -60,-131 -67,-138 -12,-64 -305,282 -342,326 -38,43 -141,137 -158,184 -33,91 137,147 147,234 1,15 2,29 3,43 14,-21 27,-40 40,-60 24,-34 47,-69 71,-102 l 1,-2 c 28,-34 57,-48 87,-45 28,4 53,23 76,55 l 1,3 c 26,45 52,96 79,147 121,235 257,497 495,552 3,1 6,1 9,2 29,7 61,10 94,9 l 420,-7 c 38,2 77,6 117,10 151,16 313,33 405,-70 20,-23 21,-77 21,-126 0,-18 0,-35 1,-50 1,-17 15,-29 32,-28 16,1 29,15 28,32 -1,15 -1,30 -1,46 0,60 0,126 -36,166 -112,127 -290,108 -457,91 -38,-4 -77,-8 -112,-10 l -417,6 c -39,1 -76,-3 -111,-10 -34,3 -60,17 -75,36 -7,9 -11,19 -12,28 -1,10 0,20 5,29 11,21 38,40 84,51 130,33 258,34 385,35 26,0 52,0 77,1 137,2 270,-3 398,-17 131,-13 256,-35 372,-63 4,0 7,-1 11,0 z m -153,-629 c 17,12 20,36 8,53 -13,16 -37,20 -53,7 -104,-77 -208,-119 -313,-129 -105,-10 -212,12 -320,61 -19,9 -41,1 -50,-18 -9,-19 0,-42 19,-50 120,-55 240,-79 358,-68 119,12 236,58 351,144 z m -237,35 c 38,39 62,92 62,151 0,60 -24,113 -62,152 l -2,2 c -39,38 -92,61 -150,61 -59,0 -113,-24 -152,-63 -39,-39 -63,-92 -63,-152 0,-59 24,-112 63,-151 39,-39 93,-63 152,-63 59,0 113,24 151,63 z"
         id="path196"
         inkscape:connector-curvature="0"
         style="fill:#a45e4d;stroke:#a45e4d;stroke-width:7.61999989" />
      <path
         class="fil11"
         d="m 23267,22823 c 14,-14 22,-34 22,-55 0,-22 -8,-41 -22,-55 -14,-14 -34,-23 -56,-23 -20,0 -39,8 -53,21 l -2,2 c -14,14 -22,33 -22,55 0,21 8,41 22,55 v 0 c 14,14 34,23 55,23 22,0 42,-9 56,-23 z"
         id="path198"
         inkscape:connector-curvature="0"
         style="fill:#373435" />
      <path
         class="fil26"
         d="m 23192,22786 c 4,-4 7,-11 7,-18 0,-7 -3,-14 -7,-18 -5,-5 -11,-8 -18,-8 -7,0 -13,3 -18,7 l -1,1 c -4,4 -7,11 -7,18 0,7 3,14 7,18 v 0 c 5,5 11,8 19,8 7,0 13,-3 18,-8 z"
         id="path200"
         inkscape:connector-curvature="0"
         style="fill:#fefefe" />
      <path
         class="fil13 str2"
         d="m 22786,24239 c -1,-63 -7,-60 25,-85 h -176 c -16,26 -34,64 -36,90 0,6 6,8 13,8 h 156 c 10,0 16,-7 18,-13 z"
         id="path202"
         inkscape:connector-curvature="0"
         style="fill:#fefefe;stroke:#373435;stroke-width:20" />
      <path
         class="fil13 str2"
         d="m 22889,24156 c -12,21 -23,42 -27,82 -1,8 13,14 15,14 h 114 c 27,0 21,-38 29,-60 8,-19 18,-16 23,-36 z"
         id="path204"
         inkscape:connector-curvature="0"
         style="fill:#fefefe;stroke:#373435;stroke-width:20" />
      <path
         class="fil13 str2"
         d="m 23496,24176 c -21,26 -61,78 -18,76 20,-1 134,1 147,0 43,-4 -3,-41 33,-76 z"
         id="path206"
         inkscape:connector-curvature="0"
         style="fill:#fefefe;stroke:#373435;stroke-width:20" />
      <path
         class="fil13 str2"
         d="m 24013,24170 c -18,25 -35,46 -39,73 2,7 15,9 25,9 h 141 c 12,0 22,1 27,-6 -2,-44 -10,-62 -6,-76 z"
         id="path208"
         inkscape:connector-curvature="0"
         style="fill:#fefefe;stroke:#373435;stroke-width:20" />
    </g>
  </g>
</svg>
