<?xml version="1.0" encoding="UTF-8"?>
<!DOCTYPE svg PUBLIC "-//W3C//DTD SVG 1.1//EN" "http://www.w3.org/Graphics/SVG/1.1/DTD/svg11.dtd">
<!-- Creator: CorelDRAW X8 -->
<svg xmlns="http://www.w3.org/2000/svg" xml:space="preserve" width="86.8678mm" height="50.7998mm" version="1.1" style="shape-rendering:geometricPrecision; text-rendering:geometricPrecision; image-rendering:optimizeQuality; fill-rule:evenodd; clip-rule:evenodd"
viewBox="0 0 8687 5080"
 xmlns:xlink="http://www.w3.org/1999/xlink">
 <defs>
  <style type="text/css">
   <![CDATA[
    .str3 {stroke:#373435;stroke-width:20}
    .str1 {stroke:#373435;stroke-width:7.62}
    .str2 {stroke:#A45E4D;stroke-width:7.62}
    .str0 {stroke:#373435;stroke-width:50;stroke-linecap:round;stroke-linejoin:round}
    .fil5 {fill:none}
    .fil4 {fill:#373435}
    .fil0 {fill:#3F3F41}
    .fil1 {fill:#A45E4D}
    .fil3 {fill:#FEFEFE}
    .fil2 {fill:#373435;fill-rule:nonzero}
   ]]>
  </style>
   <clipPath id="id0">
    <path d="M3 0l8684 0 0 5080 -8684 0 0 -5080z"/>
   </clipPath>
 </defs>
 <g id="Capa_x0020_1">
  <metadata id="CorelCorpID_0Corel-Layer"/>
  <polygon class="fil0" points="3,0 8687,0 8687,5080 3,5080 "/>
  <g style="clip-path:url(#id0)">
   <g id="_2108227501968">
    <g id="_2481018568912">
     <path id="1" class="fil1 str0" d="M132 5198c7,78 15,157 19,225 22,414 -55,708 -53,835 119,68 75,64 66,228 11,15 32,12 58,12l299 0c21,0 49,-4 53,-19 -17,-114 -151,-185 -165,-357 -13,-161 -13,-463 10,-618 19,-147 64,-259 128,-361 -128,-7 -283,-43 -410,-47l-5 102zm685 -45c0,187 -11,164 148,417 45,70 77,134 117,206 217,397 51,455 164,561 76,74 -21,153 70,161 28,3 270,-2 312,0 111,5 -38,-157 -59,-187 -140,-182 -196,-446 -285,-684 -74,-195 -123,-217 -78,-459 -130,-6 -260,-11 -389,-15zm1838 34c-4,34 -6,66 -4,100 6,89 25,119 19,227 -11,181 -132,729 -117,780 11,43 32,37 49,77 17,47 4,127 61,127l243 0c4,0 34,-12 32,-29 -30,-277 -213,-117 -60,-976 13,-72 17,-72 47,-127 28,-53 25,-92 42,-147 7,183 68,291 71,502 0,170 -26,401 -13,554 91,70 76,49 74,196 4,13 17,27 38,27l332 0c15,0 28,-4 28,-17 -5,-68 -60,-170 -96,-218 -306,-421 -106,-723 -149,-1055 0,-6 0,-12 0,-21l-597 0z"/>
     <path class="fil2 str1" d="M1038 2178l2167 0 -44 225 -2085 -26 -38 -199zm843 3009l1854 0c36,-8 72,-19 102,-34 40,-19 74,-45 100,-76l0 0c27,-37 40,-77 36,-124l0 0c-2,-19 -9,-38 -17,-59l-238 -491c51,-32 87,-70 108,-113 23,-42 32,-89 26,-134 -5,-44 -22,-87 -51,-125 -17,-23 -41,-43 -66,-62 448,-199 714,-714 956,-1179 55,-106 108,-208 162,-306 27,-36 51,-58 70,-60 17,-2 40,13 70,47 53,74 100,142 146,213 49,72 98,144 149,216l2 2c51,64 92,75 134,41 32,-26 34,-70 34,-136 0,-38 2,-89 7,-145 12,-110 178,-136 272,-293 2,-4 4,-9 4,-11 119,-312 -153,-465 -347,-675 -129,-145 -235,-287 -274,-326 -66,-83 -488,-567 -639,-382l-3 0c-97,83 368,503 -63,280 -149,-80 -85,153 -119,423 -24,200 -102,419 -277,585 -95,117 -223,195 -386,189 -124,-4 -247,-9 -372,-15 4,-6 8,-13 10,-21l249 -865c0,-2 2,-5 2,-7l0 0 0 -2 0 0 0 -2 0 0 0 0 0 0 0 0 0 0 0 0 0 0 0 -2 0 0 0 0 0 0 0 0 0 0 0 0 0 -2 0 0 0 0 0 0 0 0 0 0 0 0 0 -2 0 0 0 0 0 0 0 0 0 0 0 0 0 -2 0 0 0 0 0 0 0 0 0 0 0 -3 0 0 0 0 0 0 0 0 0 0 0 0 0 0 0 -2 0 0 0 0 0 -2 0 0 0 0 0 -2 0 0 0 0 -2 -2 0 0 0 -2 0 0 0 0 0 0 0 -2 0 0 0 -2 0 0 -2 0 0 -3 0 0 0 0 0 -2 0 0 0 -2 0 0 -2 0 0 0 0 -2 0 0 0 -2 0 0 -2 0 0 0 0 -2 0 0 0 0 0 -2 -3 0 0 0 0 -2 -2 0 0 -3 0 0c-2,-2 -2,-2 -4,-4l0 0c-2,-2 -4,-4 -6,-6 -270,-217 -812,-319 -1352,-319 -572,0 -1148,113 -1403,319 -21,17 -27,47 -19,72l240 831c3,11 7,19 15,28 -357,55 -622,265 -816,550 -289,419 -421,999 -478,1458 -4,34 21,66 57,70 34,5 66,-19 70,-55 56,-442 181,-1001 457,-1401l0 0c45,-65 94,-127 149,-184 -15,17 -27,36 -40,55l-2 0c-113,159 -136,380 -102,593l2 13c-194,199 -234,507 -274,820 -24,176 -47,353 -98,508 -2,6 -4,13 -4,19 -7,66 10,119 40,161 23,32 53,58 89,77l136 25c111,5 221,9 330,15 463,20 924,37 1385,47zm-788 -153c-9,-4 -17,-6 -28,-6 -6,0 -15,2 -21,4 -142,-4 -285,-11 -427,-15 -7,-2 -13,-2 -19,-2 -164,-6 -330,-13 -495,-21 -26,-13 -45,-28 -58,-45 -13,-17 -17,-40 -17,-70 55,-166 79,-346 102,-527 32,-255 66,-508 183,-680 55,183 147,348 251,455 325,329 775,567 1262,733 264,89 536,159 803,212 -248,-2 -497,-6 -743,-12 -264,-7 -527,-15 -793,-26zm2474 28c-2,0 -5,0 -9,0 -506,-32 -1122,-130 -1691,-323 -241,-83 -472,-183 -685,-304 166,30 336,55 512,72 275,30 564,43 861,36 55,0 108,-2 164,-2 276,-2 557,-4 846,-76 12,-3 23,-7 36,-9l238 493c4,6 4,13 6,19l0 0c0,11 -4,21 -10,30 -11,15 -30,28 -54,38 -31,15 -70,26 -110,32 -34,-2 -68,-4 -104,-6zm-2349 -2153c-36,25 -42,76 -17,112 28,34 79,43 113,15 221,-163 442,-253 665,-274 223,-21 451,26 680,130 41,19 87,2 107,-38 19,-41 0,-90 -41,-107 -255,-117 -510,-168 -761,-144 -253,25 -501,123 -746,306zm969 204c-61,0 -116,25 -157,66 -40,40 -66,95 -66,157 0,62 26,117 66,157l0 0c41,41 96,66 157,66 30,0 58,-6 83,-17 -57,55 -138,92 -225,92 -89,0 -170,-37 -227,-94l-5 -4c-59,-58 -95,-140 -95,-232 0,-89 36,-172 95,-232l0 0c60,-57 143,-95 232,-95 91,0 172,38 232,95l0 0c32,32 57,71 74,113l-6 -6 -5 -5c-40,-38 -93,-61 -153,-61zm-68 157c17,-17 43,-28 68,-28 24,0 47,9 64,26l2 2c17,17 28,40 28,66 0,26 -11,49 -28,66l0 2c-17,15 -40,26 -66,26 -25,0 -51,-11 -68,-28 -17,-17 -27,-40 -27,-66 0,-26 10,-49 27,-66zm-74 -421c-125,0 -240,51 -321,134l-2 0c-83,83 -132,196 -132,321 0,128 51,240 132,323l4 4c83,81 196,130 319,130 125,0 240,-51 323,-134 83,-83 134,-195 134,-323 0,-125 -51,-238 -134,-321 -83,-83 -198,-134 -323,-134zm-1152 1397c-85,-66 -164,-134 -238,-209 -113,-114 -206,-310 -246,-512l0 -2c-3,-13 -5,-25 -7,-40 -30,-183 -13,-368 81,-500 83,-115 166,-204 259,-276 89,-70 187,-125 300,-170 19,-2 40,-4 62,-6 641,-39 1298,-7 1946,25 192,9 383,17 576,26l2 0c211,6 370,-92 491,-236 153,-187 240,-453 279,-672 23,-128 85,-100 80,-179 32,24 66,43 103,62 68,34 78,-76 161,-59 11,2 21,2 30,-3 85,-23 -77,-189 -102,-274 -4,-17 -11,-32 -15,-49 74,58 308,209 374,277 30,29 589,644 591,648 25,72 27,142 4,210 -98,164 -270,196 -287,340 -2,32 -4,62 -6,92 -30,-45 -58,-85 -85,-128 -51,-72 -100,-146 -151,-217l-2 -4c-60,-72 -121,-102 -185,-95 -60,8 -113,48 -162,116l-2 7c-55,96 -110,204 -168,312 -257,500 -546,1057 -1052,1173 -6,3 -13,3 -19,5 -62,15 -130,21 -200,19l-892 -15c-81,4 -164,13 -249,21 -321,34 -665,70 -861,-149 -42,-48 -44,-163 -44,-267 0,-39 0,-75 -2,-107 -3,-36 -32,-61 -68,-59 -34,2 -62,32 -60,68 2,32 2,64 2,98 0,127 0,267 77,352 238,270 616,230 971,194 81,-9 164,-17 238,-21l886 12c83,2 162,-6 236,-21 72,6 128,36 160,77 14,19 23,40 25,59 2,21 0,43 -11,62 -23,44 -80,85 -178,108 -276,70 -548,72 -818,75 -56,0 -111,0 -164,2 -291,4 -574,-9 -846,-36 -278,-28 -544,-75 -790,-134 -9,0 -15,-3 -24,0zm109 -2196l-45 -153 2329 0 -42 153 -2242 0zm-81 -282l-47 -162c412,38 827,57 1241,57 417,0 835,-17 1254,-57l-45 162 -2403 0zm68 -281c274,-123 716,-191 1158,-191 423,0 842,61 1114,191 -383,34 -765,49 -1146,49 -376,-2 -752,-17 -1126,-49z"/>
     <path class="fil3" d="M2555 4543c315,-6 740,7 1046,-87l244 512c7,55 -129,98 -174,100l-104 -6 -9 0c-506,-32 -1122,-130 -1691,-323 -241,-83 -472,-183 -685,-304 444,83 908,117 1373,108z"/>
     <path class="fil3" d="M564 4127c512,520 1334,803 2065,945l-1536 -38 -49 -2 -941 -38c-34,-9 -83,-62 -75,-115 55,-166 79,-346 102,-527 32,-255 66,-508 183,-680 55,183 147,348 251,455z"/>
     <path class="fil3" d="M1813 3536c-59,-58 -95,-140 -95,-232 0,-89 36,-172 95,-232l0 0c60,-57 143,-95 232,-95 91,0 172,38 232,95l0 0c32,32 57,71 74,113l-6 -6 -5 -5c-40,-38 -93,-61 -153,-61 -61,0 -116,25 -157,66 -40,40 -66,95 -66,157 0,62 26,117 66,157l0 0c41,41 96,66 157,66 30,0 58,-6 83,-17 -57,55 -138,92 -225,92 -89,0 -170,-37 -227,-94l-5 -4z"/>
     <circle class="fil1" cx="2145" cy="3336" r="255"/>
     <polygon class="fil3" points="3161,2403 1076,2377 1038,2178 3205,2178 "/>
     <polygon class="fil3" points="3244,2050 1002,2050 957,1897 3286,1897 "/>
     <path class="fil3" d="M3324 1768l-2403 0 -47 -162c412,38 827,57 1241,57 417,0 835,-17 1254,-57l-45 162z"/>
     <path class="fil3" d="M3261 1487c-383,34 -765,49 -1146,49 -376,-2 -752,-17 -1126,-49 274,-123 716,-191 1158,-191 423,0 842,61 1114,191z"/>
     <path class="fil1 str2" d="M893 4246c-85,-66 -164,-134 -238,-209 -113,-114 -206,-310 -246,-512l0 -2 -7 -40c-30,-183 -13,-368 81,-500 83,-115 166,-204 259,-276 89,-70 187,-125 300,-170 19,-2 40,-4 62,-6 641,-39 1298,-7 1946,25 192,9 383,17 576,26l2 0c211,6 370,-92 491,-236 153,-187 232,-440 272,-659 24,-128 -10,-357 53,-328 491,236 128,-278 143,-293 25,-136 648,600 727,693 80,91 299,291 336,391 70,193 -292,313 -313,497 -2,32 -4,62 -6,92 -30,-45 -58,-85 -85,-128 -51,-72 -100,-146 -151,-217l-2 -4c-60,-72 -121,-102 -185,-95 -60,8 -113,48 -162,116l-2 7c-55,96 -110,204 -168,312 -257,500 -546,1057 -1052,1173 -6,3 -13,3 -19,5 -62,15 -130,21 -200,19l-892 -15c-81,4 -164,13 -249,21 -321,34 -665,70 -861,-149 -42,-48 -44,-163 -44,-267 0,-39 0,-75 -2,-107 -3,-36 -32,-61 -68,-59 -34,2 -62,32 -60,68 2,32 2,64 2,98 0,127 0,267 77,352 238,270 616,230 971,194 81,-9 164,-17 238,-21l886 12c83,2 162,-6 236,-21 72,6 128,36 160,77 14,19 23,40 25,59 2,21 0,43 -11,62 -23,44 -80,85 -178,108 -276,70 -548,72 -818,75 -56,0 -111,0 -164,2 -291,4 -574,-7 -846,-36 -278,-28 -544,-75 -790,-134 -9,0 -15,-3 -24,0zm325 -1337c-36,25 -42,76 -17,112 28,34 79,43 113,15 221,-163 442,-253 665,-274 223,-21 451,26 680,130 41,19 87,2 107,-38 19,-41 0,-90 -41,-107 -255,-117 -510,-168 -761,-144 -253,25 -501,123 -746,306zm504 74c-81,83 -132,196 -132,321 0,128 51,240 132,323l4 4c83,81 196,130 319,130 125,0 240,-51 323,-134 83,-83 134,-195 134,-323 0,-125 -51,-238 -134,-321 -83,-83 -198,-134 -323,-134 -125,0 -240,51 -321,134l-2 0z"/>
     <path class="fil4" d="M2077 3461c-30,-29 -47,-72 -47,-117 0,-46 17,-87 47,-116 30,-30 72,-49 119,-49 42,0 83,17 113,44l4 5c30,29 47,70 47,116 0,45 -17,88 -47,117l0 0c-30,30 -72,49 -117,49 -47,0 -89,-19 -119,-49z"/>
     <path class="fil3" d="M2236 3383c-8,-9 -15,-24 -15,-39 0,-14 7,-29 15,-38 11,-10 24,-17 39,-17 14,0 27,7 38,15l2 2c8,9 15,24 15,38 0,15 -7,30 -15,39l0 0c-11,10 -23,17 -40,17 -15,0 -28,-7 -39,-17z"/>
     <path class="fil3 str3" d="M3099 6471c2,-134 15,-128 -53,-181l374 0c34,55 72,136 77,191 0,13 -13,17 -28,17l-332 0c-21,0 -34,-14 -38,-27z"/>
     <path class="fil3 str3" d="M2880 6294c26,45 49,90 58,175 2,17 -28,29 -32,29l-243 0c-57,0 -44,-80 -61,-127 -17,-40 -38,-34 -49,-77l327 0z"/>
     <path class="fil3 str3" d="M1590 6337c45,55 130,166 38,161 -42,-2 -284,3 -312,0 -91,-8 6,-87 -70,-161l344 0z"/>
     <path class="fil3 str3" d="M491 6324c39,53 75,98 83,155 -4,15 -32,19 -53,19l-299 0c-26,0 -47,3 -58,-12 4,-94 21,-132 13,-162l314 0z"/>
    </g>
   </g>
  </g>
  <polygon class="fil5" points="3,0 8687,0 8687,5080 3,5080 "/>
 </g>
</svg>
